<?xml version="1.0" encoding="UTF-8" standalone="no"?>
<svg
xmlns="http://www.w3.org/2000/svg"
width="210mm"
height="297mm"
viewBox="0 0 744.09448819 1052.3622047"
version="1.1">
<defs>
<path d="m 26.426503,451.94157 c -7.28983,-4.31918 -17.8003901,2.04738 -25.3571401,-1.78571 -9.04007,-4.58548 -13.9878999,-14.80174 -19.6428599,-23.21429 -5.02031,-7.46842 -11.48568,-14.98699 -12.5,-23.92857 -1.8584,-16.38249 9.79655,-31.59273 12.5,-47.85714 2.64243,-15.89735 -2.41408,-33.25161 3.57143,-48.21429 6.6918199,-16.72832 21.9492399,-28.65449 34.28571,-41.78571 11.2467,-11.97124 22.03632,-25.03829 36.07143,-33.57143 15.12212,-9.19402 32.87539,-13.38988 49.999997,-17.85715 17.29002,-4.51043 35.05968,-7.33525 52.85715,-8.92857 21.10739,-1.88965 42.42721,-2.13386 63.57142,-0.71428 19.68744,1.32177 39.54946,3.3267 58.57143,8.57143 17.39138,4.79515 33.19934,14.14228 50,20.71428 13.46933,5.26886 29.78215,5.53047 40.71429,15 11.15285,9.66071 20.99945,24.17356 21.07143,38.92857 0.0571,11.71562 -11.24556,20.56451 -16.42857,31.07143 -4.92535,9.9846 -11.1061,19.58751 -13.92857,30.35714 -3.66427,13.98169 -4.4855,28.78935 -3.57143,43.21429 0.25397,4.00794 3.33022,7.85648 2.5,11.78571 -0.54645,2.58619 -3.076,4.29975 -4.64286,6.42858 -1.05852,1.43816 -1.60433,3.51318 -3.21429,4.28571 -13.20866,6.33809 -29.65446,-4.72856 -43.92857,-1.42857 -2.23108,0.5158 -4.27145,1.79872 -6.07143,3.21429 -4.37514,3.44077 -6.67349,9.08841 -11.07142,12.5 -8.45582,6.5594 -26.09269,4.23216 -28.57143,14.64285 -1.19048,5 -3.15889,9.87681 -3.57143,15 -0.39282,4.87821 -0.72375,10.08999 1.07143,14.64286 2.01868,5.11969 6.42234,9.0096 10.35714,12.85714 1.39604,1.36508 4.81172,1.62622 4.64286,3.57143 -0.24407,2.81163 -4.76601,3.22846 -7.5,3.92857 -6.11339,1.5655 -12.6182,0.29762 -18.92857,0.35715 -2.49989,0.0236 -5.1632,0.88845 -7.5,0 -2.67989,-1.0189 -4.67169,-3.44861 -6.42858,-5.71429 -2.87115,-3.70263 -5.32619,-7.94613 -6.42857,-12.5 -1.17639,-4.85964 -0.34632,-10.01201 0,-15 0.35801,-5.15623 5.18268,-11.17691 2.14286,-15.35714 -2.4173,-3.32417 -8.09524,-1.42857 -12.14286,-2.14286 -4.9877,-0.88018 -8.17615,-6.98118 -13.21428,-7.5 -3.48288,-0.35866 -8.22635,0.19548 -10,3.21429 -1.23,2.09351 -0.0106,5.18722 1.42857,7.14285 1.76825,2.40281 5.943,1.99743 7.85714,4.28572 1.6908,2.0213 3.62703,5.11793 2.5,7.5 -1.8533,3.91709 -7.92806,3.63597 -12.14286,4.64285 -5.58796,1.33492 -11.42845,2.37988 -17.14285,1.78572 -3.48252,-0.3621 -6.66004,-2.16371 -10,-3.21429 -3.08923,-0.97171 -6.69923,-0.90839 -9.28572,-2.85714 -2.61084,-1.9671 -3.22379,-5.73745 -5.35714,-8.21429 -0.93554,-1.08617 -1.83892,-2.45296 -3.21429,-2.85714 -3.69932,-1.08711 -7.57712,1.60367 -11.42857,1.78572 -3.93139,0.18583 -7.85568,-0.50164 -11.78571,-0.71429 -2.49918,-0.13523 -5.04198,-0.82865 -7.5,-0.35714 -2.8254,0.54198 -6.39739,1.09237 -7.85715,3.57143 -1.51495,2.5728 -1.91265,5.40985 -1.78571,8.39286 0.11905,2.79761 -0.46771,5.71695 0.35714,8.39285 0.59848,1.94153 2.60008,3.24197 3.21429,5.17857 0.6129,1.93244 1.81638,4.66408 0.35715,6.07143 -2.71142,2.61501 -7.6341,-0.0154 -11.25001,-1.07143 -2.63202,-0.7687 -4.941947,-2.38747 -7.321427,-3.75 -2.69398,-1.54262 -6.16013,-2.40051 -7.85714,-5 -1.71192,-2.62232 -0.95238,-6.19047 -1.42857,-9.28571 -0.471,-3.06151 1.57001,-6.86069 -0.35714,-9.28572 -1.68897,-2.12532 -5.14947,-2.33797 -7.85715,-2.14285 -2.97797,0.2146 -5.31026,2.87784 -8.21428,3.57142 -1.97185,0.47094 -4.04699,0.46494 -6.07143,0.35715 -1.44623,-0.077 -3.15198,-1.61548 -4.28572,-0.71429 -2.98798,2.3751 -1.54153,7.70234 -0.71428,11.42857 0.96987,4.36862 3.84274,8.13346 6.42857,11.78572 1.85096,2.61432 5.3693,4.11982 6.42857,7.14285 0.6704,1.91325 0.89467,4.47677 -0.35714,6.07143 -1.99965,2.54734 -6.08327,2.3756 -9.28572,2.85715 -4.23807,0.63727 -8.57202,0.0714 -12.85714,0 -3.57291,-0.0595 -7.41036,1.00423 -10.71428,-0.35715 -2.10288,-0.86649 -4.5174,-2.42024 -5,-4.64285 -0.65678,-3.02475 3.39124,-5.48144 3.57142,-8.57143 0.25226,-4.32605 -3.21428,-11.07143 -3.57142,-12.5 -0.35715,-1.42857 -2.16435,-5.58094 -3.57143,-8.21429 -0.93375,-1.74752 -1.50968,-3.99003 -3.21429,-5 z"
id="walk1" />
<path d="m 246.34507,755.94421 c -6.2398,-5.73253 -13.00217,2.04738 -20.55892,-1.78571 -9.04007,-4.58548 -13.9879,-14.80174 -19.64286,-23.21429 -5.02031,-7.46842 -11.48568,-14.98699 -12.5,-23.92857 -1.8584,-16.38249 9.79655,-31.59273 12.5,-47.85714 2.64243,-15.89735 -2.41408,-33.25161 3.57143,-48.21429 6.69182,-16.72832 21.94924,-28.65449 34.28571,-41.78571 11.2467,-11.97124 22.03632,-25.03829 36.07143,-33.57143 15.12212,-9.19402 32.87539,-13.38988 50,-17.85715 17.29002,-4.51043 35.05968,-7.33525 52.85715,-8.92857 21.10739,-1.88965 42.42721,-2.13386 63.57142,-0.71428 19.68744,1.32177 39.54946,3.3267 58.57143,8.57143 17.39138,4.79515 33.19934,14.14228 49.99998,20.71428 13.4693,5.26886 29.7822,5.53047 40.7143,15 11.1529,9.66071 20.9995,24.17356 21.0714,38.92857 0.057,11.71562 -11.2455,20.56451 -16.4285,31.07143 -4.9254,9.9846 -11.1061,19.58751 -13.9286,30.35714 -3.6643,13.98169 -4.4855,28.78935 -3.5714,43.21429 0.2539,4.00794 3.3302,7.85648 2.5,11.78571 -0.5465,2.58619 -3.076,4.29975 -4.6429,6.42858 -1.0585,1.43816 -1.6043,3.51318 -3.2143,4.28571 -13.2086,6.33809 -29.6544,-4.72856 -43.92855,-1.42857 -2.23108,0.5158 -4.27145,1.79872 -6.07143,3.21429 -4.37514,3.44077 -6.67349,9.08841 -11.07142,12.5 -8.45582,6.5594 -24.86523,4.60339 -28.57143,14.64285 -2.03227,5.50508 -5.4253,10.68556 -6.09681,16.51523 -0.64054,5.56079 0.43075,11.31462 2.08158,16.66322 1.14181,3.6994 3.32673,7.0045 5.30638,10.3317 0.9455,1.5891 3.72725,2.8324 3.12763,4.5816 -0.85163,2.4843 -4.90376,2.0176 -7.5,2.4134 -5.57193,0.8494 -11.2723,-0.2093 -16.90827,-0.148 -3.90127,0.043 -7.87038,1.1074 -11.69906,0.3572 -3.23898,-0.6347 -7.35692,-1.1827 -9.05112,-4.0153 -2.49763,-4.1758 0.5476,-9.7214 1.09681,-14.5562 0.62522,-5.50383 1.14121,-11.05857 2.5,-16.42856 1.21006,-4.78222 7.4756,-9.66181 5,-13.92857 -2.06269,-3.5551 -8.27552,-0.75107 -12.14286,-2.14286 -4.76556,-1.71504 -8.17615,-6.98118 -13.21428,-7.5 -3.48288,-0.35866 -8.07784,0.28779 -10,3.21429 -3.63503,5.53435 0.51136,13.30295 1.93365,19.76976 1.81865,8.26893 3.4892,17.06014 8.36221,23.98374 1.36422,1.9383 5.51321,2.0993 5.53046,4.4695 0.0176,2.4188 -3.34185,3.7179 -5.57687,4.6429 -4.36449,1.8062 -9.39641,1.0149 -14.11239,1.2806 -4.84206,0.2729 -9.91464,1.7612 -14.54569,0.3213 -2.65341,-0.8251 -4.9872,-2.738 -6.76034,-4.8775 -2.93811,-3.5451 -3.94464,-8.3214 -5.86221,-12.5074 -1.77886,-3.8833 -3.32165,-7.87703 -5.2346,-11.69603 -2.88782,-5.76523 -3.80808,-13.70595 -9.40826,-16.9021 -3.33998,-1.9062 -7.69243,0.10164 -11.53317,0.29586 -5.11759,0.2588 -10.45114,-0.41232 -15.32869,1.15809 -2.63838,0.84948 -5.6405,1.97238 -7.09953,4.32905 -2.68423,4.33563 -1.38108,10.14328 -1.30602,15.24202 0.0488,3.31401 0.75276,6.58581 1.14014,9.87751 0.33633,2.8579 0.0269,5.8736 1.0281,8.5714 0.70102,1.8889 3.86018,3.0638 3.36966,5.0179 -0.37378,1.4891 -2.57036,1.8248 -4.06908,2.1578 -3.10183,0.6891 -6.3437,-0.406 -9.5203,-0.4797 -4.30151,-0.1 -9.08676,2.0286 -12.90791,0.051 -1.25731,-0.6508 -1.93979,-2.1524 -2.43872,-3.4774 -3.39512,-9.0158 -0.32343,-19.5167 -3.13506,-28.73115 -0.95697,-3.13625 -1.78097,-6.99129 -4.57415,-8.70884 -3.98216,-2.44866 -9.34898,-0.31787 -14.02266,-0.21665 -2.02683,0.0439 -4.04699,0.46494 -6.07143,0.35715 -1.44623,-0.077 -3.04201,-1.45638 -4.28572,-0.71429 -3.53408,2.10869 -4.07322,7.56644 -3.99728,11.68111 0.0843,4.56814 2.80212,8.74397 4.91335,12.79587 1.42154,2.7283 4.68076,4.6101 5.16587,7.648 0.35942,2.2507 -0.28163,4.9441 -1.87236,6.5765 -1.83255,1.8805 -4.92625,1.9305 -7.51796,2.352 -4.31401,0.7017 -8.7521,0.5911 -13.10968,0.2526 -3.10417,-0.2411 -6.65613,0.1767 -9.19905,-1.6199 -1.92632,-1.3609 -3.28534,-3.8079 -3.48477,-6.158 -0.23407,-2.7585 2.54239,-5.0589 2.81381,-7.8139 0.39641,-4.0238 -0.68749,-8.10877 -1.80366,-11.99491 -0.82422,-2.86968 -1.83922,-5.78245 -3.57143,-8.21429 -1.57362,-2.20922 -3.9948,-3.67005 -5.9922,-5.50508 z"
id="stand" />
<path d="m 479.73579,440.08915 c -3.59898,-0.71947 -7.30831,-0.6854 -10.96247,-1.0281 -10.09226,-0.94649 -13.9879,-14.80174 -19.64286,-23.21429 -5.02031,-7.46842 -11.48568,-14.98699 -12.5,-23.92857 -1.8584,-16.38249 9.79655,-31.59273 12.5,-47.85714 2.64243,-15.89735 -2.41408,-33.25161 3.57143,-48.21429 6.69182,-16.72832 21.94924,-28.65449 34.28571,-41.78571 11.2467,-11.97124 22.03632,-25.03829 36.07143,-33.57143 15.12212,-9.19402 32.87541,-13.38988 50.00001,-17.85715 17.29,-4.51043 35.0597,-7.33525 52.8571,-8.92857 21.1074,-1.88965 42.4272,-2.13386 63.5715,-0.71428 19.6874,1.32177 39.5494,3.3267 58.5714,8.57143 17.3914,4.79515 33.1993,14.14228 50,20.71428 13.4693,5.26886 29.7821,5.53047 40.7143,15 11.1528,9.66071 20.9994,24.17356 21.0714,38.92857 0.057,11.71562 -11.2456,20.56451 -16.4286,31.07143 -4.9253,9.9846 -11.1061,19.58751 -13.9285,30.35714 -3.6643,13.98169 -4.4855,28.78935 -3.5715,43.21429 0.254,4.00794 3.3303,7.85648 2.5,11.78571 -0.5464,2.58619 -3.076,4.29975 -4.6428,6.42858 -1.0585,1.43816 -1.6044,3.51318 -3.2143,4.28571 -13.2087,6.33809 -29.6545,-4.72856 -43.9286,-1.42857 -2.2311,0.5158 -4.2714,1.79872 -6.0714,3.21429 -4.3752,3.44077 -6.6735,9.08841 -11.0714,12.5 -8.4559,6.5594 -30.3163,4.08433 -28.5715,14.64285 0.409,2.47462 0.5003,5.02322 1.2268,7.42386 0.9627,3.18082 2.0295,6.48906 4.1019,9.08703 1.3836,1.73446 4.6752,1.89124 5.3064,4.01828 0.5382,1.8135 -0.7453,3.85895 -1.9231,5.33921 -1.6023,2.01372 -4.1822,3.04233 -6.4899,4.18117 -3.4449,1.70006 -7.1143,2.98599 -10.8473,3.89261 -3.9878,0.96849 -8.2935,2.86384 -12.2042,1.61989 -2.9369,-0.93422 -5.6411,-3.42365 -6.7783,-6.28814 -2.0122,-5.0688 1.415,-10.87969 1.0969,-16.324 -0.1102,-1.88506 -0.2385,-3.85759 -1.0356,-5.56938 -1.0188,-2.18802 -3.0643,-3.72987 -4.5964,-5.59481 -2.6091,-3.17583 -8.2755,-0.75107 -12.1429,-2.14286 -4.7655,-1.71504 -8.1761,-6.98118 -13.2143,-7.5 -3.4828,-0.35866 -8.0778,0.28779 -10,3.21429 -3.635,5.53435 -5.5495,13.30295 -4.1272,19.76976 1.8186,8.26893 -0.2989,17.31264 4.5741,24.23627 1.3642,1.9383 5.7658,4.62468 5.783,6.99488 0.018,2.4188 -3.5944,2.70775 -5.8294,3.63275 -4.3645,1.8062 -9.1439,1.0149 -13.8599,1.2806 -4.842,0.2729 -16.228,1.00358 -20.8591,-0.43632 -2.6534,-0.8251 -2.2093,-4.25323 -3.9824,-6.39273 -2.9381,-3.5451 0.601,-6.55366 -1.3165,-10.73966 -1.7789,-3.88328 1.4765,-8.88714 -0.4364,-12.70614 -2.8878,-5.76523 -0.02,-13.95849 -5.6202,-17.15464 -3.34,-1.9062 -7.6924,0.10164 -11.5332,0.29586 -5.1176,0.2588 -10.5203,-0.61287 -15.3287,1.15809 -3.4608,1.27466 -7.9874,1.01937 -10.3825,3.82397 -3.1407,3.67771 -2.1594,9.4411 -2.8212,14.23187 -0.5098,3.68992 -1.0873,7.42097 -0.8802,11.14016 0.1999,3.5898 1.3058,7.07178 2.0382,10.59174 0.4195,2.01589 2.5466,4.35277 1.3494,6.02805 -1.138,1.59253 -3.8801,0.59206 -5.8368,0.64257 -2.7563,0.0712 -5.5025,-0.37421 -8.2577,-0.4797 -3.6271,-0.13887 -4.3711,1.70033 -7.6046,0.051 -1.9504,-0.99487 -3.0499,-2.64974 -3.7014,-4.74009 -2.7516,-8.82958 1.7511,-18.47887 1.4107,-27.72099 -0.1107,-3.00509 -0.5765,-6.94388 -2.8064,-8.96138 -3.4666,-3.13634 -11.37628,-1.24878 -16.04299,-0.97426 -2.02381,0.11905 -4.2971,-0.62354 -6.07143,0.35715 -1.01108,0.55883 -1.91373,1.67028 -2.01288,2.82125 -0.1864,2.16373 1.74586,3.98593 2.82125,5.87273 1.53666,2.6961 2.98572,5.53664 5.16589,7.74506 1.18003,1.19532 4.19547,1.17062 4.15572,2.84981 -0.0759,3.20715 -5.29573,3.6688 -8.18581,5.06127 -2.31773,1.1167 -4.76581,1.9956 -7.26543,2.60454 -5.52181,1.34519 -11.3178,3.35189 -16.89774,2.2729 -2.41565,-0.46712 -4.92374,-1.68793 -6.42114,-3.6402 -1.34343,-1.75153 -1.03157,-4.29477 -1.66099,-6.41054 -0.60021,-2.01762 -1.1917,-4.04759 -2.01505,-5.98489 -0.98944,-2.32809 -1.98879,-4.7044 -3.49746,-6.7349 -1.469,-1.97708 -3.13211,-3.97631 -5.29586,-5.15318 -1.69099,-0.91974 -3.77097,-0.78578 -5.6298,-1.28591 -1.61724,-0.43513 -3.15597,-1.16178 -4.79823,-1.49008 z"
id="walk2" />
</defs>
</svg>
