<?xml version="1.0" encoding="UTF-8" standalone="no"?>
<!-- Created with Inkscape (http://www.inkscape.org/) -->

<svg
   xmlns:dc="http://purl.org/dc/elements/1.1/"
   xmlns:cc="http://creativecommons.org/ns#"
   xmlns:rdf="http://www.w3.org/1999/02/22-rdf-syntax-ns#"
   xmlns:svg="http://www.w3.org/2000/svg"
   xmlns="http://www.w3.org/2000/svg"
   xmlns:sodipodi="http://sodipodi.sourceforge.net/DTD/sodipodi-0.dtd"
   xmlns:inkscape="http://www.inkscape.org/namespaces/inkscape"
   width="210mm"
   height="297mm"
   viewBox="0 0 744.09448819 1052.3622047"
   id="svg4254"
   version="1.1"
   inkscape:version="0.91 r13725"
   sodipodi:docname="walk.svg">
  <defs
     id="defs4256" />
  <sodipodi:namedview
     id="base"
     pagecolor="#ffffff"
     bordercolor="#666666"
     borderopacity="1.0"
     inkscape:pageopacity="0.0"
     inkscape:pageshadow="2"
     inkscape:zoom="1.4"
     inkscape:cx="299.38839"
     inkscape:cy="679.06051"
     inkscape:document-units="px"
     inkscape:current-layer="layer1"
     showgrid="false"
     inkscape:window-width="1838"
     inkscape:window-height="1057"
     inkscape:window-x="74"
     inkscape:window-y="-8"
     inkscape:window-maximized="1" />
  <metadata
     id="metadata4259">
    <rdf:RDF>
      <cc:Work
         rdf:about="">
        <dc:format>image/svg+xml</dc:format>
        <dc:type
           rdf:resource="http://purl.org/dc/dcmitype/StillImage" />
        <dc:title></dc:title>
      </cc:Work>
    </rdf:RDF>
  </metadata>
  <g
     inkscape:label="Layer 1"
     inkscape:groupmode="layer"
     id="layer1">
    <path
       style="opacity:0.79299999;fill:#b0a295;fill-opacity:1;fill-rule:evenodd;stroke:#8a7566;stroke-width:1px;stroke-linecap:butt;stroke-linejoin:miter;stroke-opacity:1"
       d="m 246.34507,755.94421 c -4.64882,-5.07011 -14.44984,1.37605 -20.55892,-1.78571 -9.00231,-4.65916 -13.9879,-14.80174 -19.64286,-23.21429 -5.02031,-7.46842 -11.48568,-14.98699 -12.5,-23.92857 -1.8584,-16.38249 9.79655,-31.59273 12.5,-47.85714 2.64243,-15.89735 -2.41408,-33.25161 3.57143,-48.21429 6.69182,-16.72832 21.94924,-28.65449 34.28571,-41.78571 11.2467,-11.97124 22.03632,-25.03829 36.07143,-33.57143 15.12212,-9.19402 32.87539,-13.38988 50,-17.85715 17.29002,-4.51043 35.05968,-7.33525 52.85715,-8.92857 21.10739,-1.88965 42.42721,-2.13386 63.57142,-0.71428 19.68744,1.32177 39.54946,3.3267 58.57143,8.57143 17.39137,4.79515 33.19932,14.14228 49.99998,20.71428 13.46933,5.26886 29.78216,5.53047 40.7143,15 11.15285,9.66071 20.99941,24.17357 21.0714,38.92857 0.0572,11.71561 -11.2455,20.56451 -16.4285,31.07143 -4.92535,9.9846 -11.10613,19.58751 -13.9286,30.35714 -3.66427,13.98168 -4.48548,28.78935 -3.5714,43.21429 0.25397,4.00794 3.33023,7.85648 2.5,11.78571 -0.54645,2.5862 -3.07603,4.29975 -4.6429,6.42858 -1.05852,1.43816 -1.60434,3.51318 -3.2143,4.28571 -13.20866,6.33807 -29.65445,-4.72856 -43.92855,-1.42857 -2.23108,0.5158 -4.27145,1.79872 -6.07143,3.21429 -4.37514,3.44077 -6.67349,9.08841 -11.07142,12.5 -8.45582,6.5594 -21.47137,6.63562 -28.57143,14.64285 -3.89327,4.39072 -5.4253,10.68556 -6.09681,16.51523 -0.64054,5.56081 0.43073,11.31461 2.08158,16.66322 1.14181,3.69937 3.32674,7.00452 5.30638,10.3317 0.9455,1.58911 3.72725,2.8324 3.12763,4.5816 -0.85162,2.48433 -4.90375,2.0176 -7.5,2.4134 -5.57193,0.84944 -11.2723,-0.20935 -16.90827,-0.148 -3.90127,0.0425 -7.87038,1.10747 -11.69906,0.3572 -3.23899,-0.63471 -7.35693,-1.1827 -9.05112,-4.0153 -2.49762,-4.1759 0.5476,-9.72147 1.09681,-14.5562 0.62522,-5.50383 1.14121,-11.05857 2.5,-16.42856 1.21006,-4.78222 7.4756,-9.66181 5,-13.92857 -2.06269,-3.5551 -8.27552,-0.75107 -12.14286,-2.14286 -4.76556,-1.71504 -8.17615,-6.98118 -13.21428,-7.5 -3.48288,-0.35866 -8.07784,0.28779 -10,3.21429 -3.63503,5.53435 0.51136,13.30295 1.93365,19.76976 1.81865,8.26894 3.48917,17.06012 8.36221,23.98374 1.36422,1.93829 5.5132,2.09932 5.53046,4.4695 0.0176,2.4188 -3.34184,3.71796 -5.57687,4.6429 -4.36448,1.80619 -9.39641,1.01486 -14.11239,1.2806 -4.84206,0.27285 -9.91465,1.76125 -14.54569,0.3213 -2.65342,-0.82504 -4.98719,-2.73803 -6.76034,-4.8775 -2.9381,-3.54509 -3.94465,-8.32135 -5.86221,-12.5074 -1.77887,-3.88328 -3.32165,-7.87702 -5.2346,-11.69603 -2.88782,-5.76523 -3.80808,-13.70595 -9.40826,-16.9021 -3.33998,-1.9062 -7.69242,0.10163 -11.53317,0.29586 -5.11759,0.2588 -10.45115,-0.41233 -15.32869,1.15809 -2.63838,0.84948 -5.6405,1.97238 -7.09953,4.32905 -2.68423,4.33563 -1.38109,10.14328 -1.30602,15.24202 0.0488,3.31401 0.75276,6.58586 1.14014,9.87751 0.33633,2.85789 0.0269,5.87358 1.0281,8.5714 0.70101,1.88889 3.86016,3.06374 3.36966,5.0179 -0.37377,1.48908 -2.57035,1.82482 -4.06908,2.1578 -3.10183,0.68914 -6.3437,-0.406 -9.5203,-0.4797 -4.30151,-0.0998 -9.08675,2.0288 -12.90791,0.051 -1.25733,-0.65079 -1.93979,-2.15246 -2.43872,-3.4774 -3.39508,-9.01584 -0.32344,-19.51667 -3.13506,-28.73115 -0.95697,-3.13625 -1.78096,-6.99129 -4.57415,-8.70884 -3.98216,-2.44866 -9.34898,-0.31787 -14.02266,-0.21665 -2.02683,0.0439 -4.04699,0.46494 -6.07143,0.35715 -1.44623,-0.077 -3.04201,-1.45638 -4.28572,-0.71429 -3.53408,2.10869 -4.07323,7.56644 -3.99728,11.68111 0.0843,4.56814 2.80214,8.74398 4.91335,12.79587 1.42155,2.72827 4.68076,4.61009 5.16587,7.648 0.35941,2.25077 -0.28162,4.94412 -1.87236,6.5765 -1.83255,1.88053 -4.92625,1.93047 -7.51796,2.352 -4.31402,0.70166 -8.7521,0.59108 -13.10968,0.2526 -3.10418,-0.24112 -6.65613,0.17666 -9.19905,-1.6199 -1.9263,-1.36092 -3.28534,-3.8079 -3.48477,-6.158 -0.23408,-2.75845 2.5424,-5.05887 2.81381,-7.8139 0.3964,-4.02377 -0.68749,-8.10877 -1.80366,-11.99491 -0.82422,-2.86968 -1.83922,-5.78245 -3.57143,-8.21429 -1.57363,-2.20921 -4.90141,-3.02172 -5.9922,-5.50508 -3e-5,-7e-5 5e-5,-1.8e-4 0,-2.4e-4 z"
       id="stand"
       inkscape:connector-curvature="0"
       sodipodi:nodetypes="ssssssssssssssssssssssssssssssssssssssssssssssssssssssssssssssssssssssssssssss"
       inkscape:label="" />
    <path
       style="opacity:0.79299999;fill:#b0a295;fill-opacity:1;fill-rule:evenodd;stroke:#8a7566;stroke-width:1px;stroke-linecap:butt;stroke-linejoin:miter;stroke-opacity:1"
       d="m 479.73579,440.08915 c -3.59898,-0.71947 -7.70877,0.67005 -10.96247,-1.0281 -8.98626,-4.69005 -13.9879,-14.80174 -19.64286,-23.21429 -5.02031,-7.46842 -11.48568,-14.98699 -12.5,-23.92857 -1.8584,-16.38249 9.79655,-31.59273 12.5,-47.85714 2.64243,-15.89735 -2.41408,-33.25161 3.57143,-48.21429 6.69182,-16.72832 21.94924,-28.65449 34.28571,-41.78571 11.2467,-11.97124 22.03632,-25.03829 36.07143,-33.57143 15.12213,-9.19402 32.8754,-13.38987 50.00001,-17.85715 17.29,-4.51042 35.05965,-7.33525 52.8571,-8.92857 21.10742,-1.88965 42.42726,-2.13386 63.5715,-0.71428 19.68743,1.32177 39.54944,3.3267 58.5714,8.57143 17.39138,4.79515 33.19934,14.14228 50,20.71428 13.46933,5.26886 29.78216,5.53047 40.7143,15 11.15285,9.66071 20.99943,24.17357 21.0714,38.92857 0.0571,11.71563 -11.24559,20.5645 -16.4286,31.07143 -4.92534,9.98459 -11.10604,19.58752 -13.9285,30.35714 -3.66427,13.98169 -4.48556,28.78935 -3.5715,43.21429 0.25397,4.00794 3.33021,7.85648 2.5,11.78571 -0.54643,2.58618 -3.07595,4.29975 -4.6428,6.42858 -1.05851,1.43817 -1.60434,3.51318 -3.2143,4.28571 -13.20867,6.33808 -29.65449,-4.72857 -43.9286,-1.42857 -2.23107,0.5158 -4.27143,1.79872 -6.0714,3.21429 -4.37513,3.44077 -6.67348,9.08841 -11.0714,12.5 -8.45583,6.55942 -23.75621,5.08565 -28.5715,14.64285 -1.12857,2.23993 0.50022,5.02322 1.2268,7.42386 0.96271,3.18082 2.02947,6.48906 4.1019,9.08703 1.3836,1.73446 4.67519,1.89124 5.3064,4.01828 0.53816,1.8135 -0.7453,3.85895 -1.9231,5.33921 -1.60226,2.01373 -4.18222,3.04233 -6.4899,4.18117 -3.44488,1.70005 -7.11428,2.98599 -10.8473,3.89261 -3.98782,0.9685 -8.29353,2.86384 -12.2042,1.61989 -2.93695,-0.93422 -5.64115,-3.42364 -6.7783,-6.28814 -2.01221,-5.06881 1.41508,-10.87969 1.0969,-16.324 -0.11017,-1.88507 -0.2385,-3.85759 -1.0356,-5.56938 -1.01885,-2.18801 -2.51255,-4.37703 -4.5964,-5.59481 -3.54865,-2.0738 -8.27554,-0.75107 -12.1429,-2.14286 -4.76556,-1.71504 -8.17617,-6.98119 -13.2143,-7.5 -3.48288,-0.35866 -7.65779,0.61177 -10,3.21429 -4.5034,5.00391 -4.06233,13.03808 -4.1272,19.76976 -0.0792,8.22099 1.08206,16.79338 4.5741,24.23627 1.285,2.73883 6.26897,4.00888 5.783,6.99488 -0.36779,2.25983 -3.65949,2.9023 -5.8294,3.63275 -4.39719,1.48021 -9.2232,1.11542 -13.8599,1.2806 -6.95015,0.2476 -14.81446,3.0029 -20.8591,-0.43632 -2.18209,-1.24154 -3.14622,-4.02551 -3.9824,-6.39273 -1.20126,-3.40076 -1.03491,-7.14399 -1.3165,-10.73966 -0.33087,-4.22494 0.30339,-8.53333 -0.4364,-12.70614 -1.05042,-5.92488 -0.70293,-13.68649 -5.6202,-17.15464 -3.14265,-2.21651 -7.69244,0.10163 -11.5332,0.29586 -5.11759,0.2588 -10.32162,0.0691 -15.3287,1.15809 -3.60386,0.78378 -7.98743,1.01937 -10.3825,3.82397 -3.14069,3.67771 -2.1594,9.4411 -2.8212,14.23187 -0.50972,3.68992 -1.08732,7.42096 -0.8802,11.14016 0.19991,3.58979 1.30572,7.07179 2.0382,10.59174 0.4195,2.01589 2.54657,4.35276 1.3494,6.02805 -1.13803,1.59252 -3.8801,0.59205 -5.8368,0.64257 -2.75629,0.0712 -5.5014,-0.40896 -8.2577,-0.4797 -2.53409,-0.065 -5.32265,1.15489 -7.6046,0.051 -1.80462,-0.87298 -3.09738,-2.82857 -3.7014,-4.74009 -2.78776,-8.82231 2.57637,-18.54243 1.4107,-27.72099 -0.39436,-3.10524 -0.34124,-7.03239 -2.8064,-8.96138 -4.21929,-3.3016 -10.68548,-0.96918 -16.04299,-0.97426 -2.02731,-0.002 -4.2971,-0.62354 -6.07143,0.35715 -1.01108,0.55883 -1.91373,1.67028 -2.01288,2.82125 -0.1864,2.16373 1.74586,3.98593 2.82125,5.87273 1.53666,2.6961 2.98572,5.53664 5.16589,7.74506 1.18003,1.19532 4.19547,1.17062 4.15572,2.84981 -0.0759,3.20715 -5.29573,3.6688 -8.18581,5.06127 -2.31773,1.1167 -4.76581,1.9956 -7.26543,2.60454 -5.52181,1.34519 -11.3178,3.35189 -16.89774,2.2729 -2.41565,-0.46712 -4.92374,-1.68793 -6.42114,-3.6402 -1.34343,-1.75153 -1.03158,-4.29477 -1.66099,-6.41054 -0.60021,-2.01762 -1.1917,-4.04759 -2.01505,-5.98489 -0.98944,-2.32809 -1.98878,-4.70441 -3.49746,-6.7349 -1.46899,-1.97709 -3.13211,-3.97631 -5.29586,-5.15318 -1.69099,-0.91974 -3.77098,-0.78578 -5.6298,-1.28591 -1.61724,-0.43513 -3.15597,-1.16178 -4.79823,-1.49008 z"
       id="walk2"
       inkscape:connector-curvature="0"
       sodipodi:nodetypes="ssssssssssssssssssssssssssssssssssssssssssssssssssssssssssssssssssssssssssssss"
       inkscape:label="" />
    <path
       style="opacity:0.79299999;fill:#b0a295;fill-opacity:1;fill-rule:evenodd;stroke:#8a7566;stroke-width:1px;stroke-linecap:butt;stroke-linejoin:miter;stroke-opacity:1"
       d="m 20.04698,369.12126 c -4.339948,0.0478 -8.978667,2.66689 -12.9827752,0.99221 -9.3515732,-3.91121 -13.9879037,-14.80174 -19.6428598,-23.21429 -5.020307,-7.46842 -11.48568,-14.98699 -12.499999,-23.92857 -1.858403,-16.38249 9.796554,-31.59273 12.499999,-47.85714 2.6424334,-15.89735 -2.414079,-33.25161 3.5714299,-48.21429 6.6918196,-16.72833 21.9492401,-28.6545 34.2857101,-41.78572 11.246697,-11.97124 22.036318,-25.03829 36.07143,-33.57143 15.122124,-9.19402 32.875399,-13.38987 50.000005,-17.85715 17.29,-4.51042 35.05965,-7.33525 52.8571,-8.92857 21.10742,-1.88965 42.42726,-2.13386 63.5715,-0.71428 19.68743,1.32177 39.54944,3.3267 58.5714,8.57143 17.39138,4.79515 33.19934,14.14228 50,20.71428 13.46933,5.26886 29.78216,5.53047 40.7143,15 11.15285,9.66071 20.99943,24.17357 21.0714,38.92857 0.0571,11.71563 -11.24559,20.56451 -16.4286,31.07144 -4.92534,9.98459 -11.10604,19.58752 -13.9285,30.35714 -3.66427,13.98169 -4.48556,28.78935 -3.5715,43.21429 0.25397,4.00794 3.33021,7.85648 2.5,11.78571 -0.54643,2.58618 -3.07595,4.29975 -4.6428,6.42858 -1.05851,1.43817 -1.60434,3.51318 -3.2143,4.28571 -13.20867,6.33808 -29.65449,-4.72857 -43.9286,-1.42857 -2.23107,0.5158 -4.27143,1.79872 -6.0714,3.21429 -4.37513,3.44077 -6.67348,9.08841 -11.0714,12.5 -8.45583,6.55942 -22.32089,5.95625 -28.5715,14.64285 -4.64439,6.45441 -4.98413,15.76108 -3.57142,23.5863 0.9922,5.496 4.40664,10.49151 8.14251,14.64287 2.34117,2.60155 8.62689,2.53891 8.58939,6.03858 -0.0148,1.38044 -2.17432,1.75369 -3.43833,2.30876 -3.1472,1.38203 -6.59768,2.15775 -10.02543,2.4134 -3.45102,0.25739 -6.88242,-0.9799 -10.34223,-0.90561 -3.50773,0.0753 -7.00545,2.101 -10.43643,1.36735 -2.49758,-0.53406 -4.85149,-2.08658 -6.52576,-4.0153 -3.40884,-3.92691 -4.92624,-9.26885 -6.22671,-14.30369 -1.35456,-5.24429 -1.79149,-10.7654 -1.54067,-16.17599 0.24661,-5.31984 6.23455,-11.48115 2.97974,-15.69633 -2.63423,-3.4115 -8.82993,0.53683 -12.90051,-0.88017 -3.88933,-1.35391 -6.16217,-6.10832 -10.18384,-6.99492 -3.80186,-0.83815 -9.28265,-1.23779 -11.51523,1.95159 -1.78082,2.54402 -0.25393,6.73444 1.68117,9.16316 1.7199,2.15862 5.73759,1.24286 7.60456,3.27561 1.60249,1.74478 3.25546,4.59846 2.24747,6.74234 -1.42466,3.03007 -6.12701,2.7802 -9.36494,3.63275 -6.24259,1.64368 -12.71145,3.01167 -19.1632,2.79583 -3.49362,-0.11688 -6.87727,-1.29472 -10.2525,-2.20409 -2.97195,-0.80071 -6.13155,-1.29001 -8.78062,-2.85719 -1.1143,-0.65922 -1.97275,-1.68975 -2.83173,-2.65844 -1.20015,-1.35345 -2.06312,-2.97707 -3.21432,-4.37239 -1.59923,-1.93834 -2.70116,-4.83966 -5.11512,-5.53788 -3.48856,-1.00905 -6.89798,2.60427 -10.52305,2.82124 -4.9828,0.29824 -9.84268,-2.45267 -14.82362,-2.12491 -3.15074,0.20734 -6.52785,0.758 -9.11981,2.56128 -2.25204,1.5668 -4.03502,4.0335 -4.84151,6.65573 -1.16646,3.79265 -1.07247,8.20617 0.38249,11.89777 0.61275,1.5547 2.55126,2.27969 3.30089,3.77321 0.96056,1.91377 2.17509,4.30488 1.3494,6.28059 -0.69719,1.66825 -2.7675,2.84262 -4.57411,2.91542 -1.77959,0.0717 -3.08058,-1.80914 -4.72216,-2.50001 -1.47558,-0.621 -3.03334,-1.02961 -4.57414,-1.46423 -2.30685,-0.6507 -4.89877,-0.52847 -6.984395,-1.70963 -3.583361,-2.02939 -7.151324,-4.9611 -8.690826,-8.78063 -1.998032,-4.95715 3.623335,-11.90808 0.224058,-16.03245 -1.769482,-2.14693 -5.442353,-1.71731 -8.214307,-1.47933 -4.02071,0.34518 -7.355297,3.78547 -11.374731,4.14522 -2.379859,0.213 -5.307193,-2.83923 -7.063643,-1.21936 -3.557411,3.28079 -0.137479,9.84003 1.306022,14.45902 1.347032,4.31031 4.053688,8.11282 6.681118,11.78567 1.656253,2.31526 5.644276,3.53879 5.670949,6.38535 0.02599,2.77352 -2.913265,5.11155 -5.40789,6.32396 -4.226024,2.05388 -9.387435,0.44159 -14.083961,0.58423 -4.368686,0.13269 -9.00211,1.74625 -13.109668,0.2526 -2.458245,-0.8939 -5.200811,-2.63939 -5.916064,-5.15543 -1.045338,-3.67718 3.640961,-7.14161 3.389773,-10.95623 -0.211297,-3.20882 -2.792949,-5.79672 -4.035355,-8.76281 -0.996912,-2.37999 -1.537572,-4.95683 -2.739845,-7.23997 -1.165911,-2.21409 -2.509496,-4.40077 -4.285708,-6.16334 -0.962308,-0.95491 -2.073133,-1.86052 -3.356957,-2.29606 -2.794205,-0.94793 -5.888399,-0.51243 -8.83884,-0.47993 z"
       id="walk1"
       inkscape:connector-curvature="0"
       sodipodi:nodetypes="ssssssssssssssssssssssssssssssssssssssssssssssssssssssssssssssssssssssssssssss"
       inkscape:label="" />
  </g>
</svg>
